<svg width="24" height="25" viewBox="0 0 24 25" fill="none" xmlns="http://www.w3.org/2000/svg">
<path d="M11 6.5C12.38 6.5 13.63 7.06 14.54 7.96L12 10.5H18V4.5L15.95 6.55C14.68 5.28 12.93 4.5 11 4.5C7.47 4.5 4.57 7.11 4.08 10.5H6.1C6.56 8.22 8.58 6.5 11 6.5ZM16.64 15.64C17.3 14.74 17.76 13.67 17.92 12.5H15.9C15.44 14.78 13.42 16.5 11 16.5C9.62 16.5 8.37 15.94 7.46 15.04L10 12.5H4V18.5L6.05 16.45C7.32 17.72 9.07 18.5 11 18.5C12.55 18.5 13.98 17.99 15.14 17.14L20 21.99L21.49 20.5L16.64 15.64Z" fill="#9D9D9D"/>
</svg>
